<svg xmlns="http://www.w3.org/2000/svg" xmlns:xlink="http://www.w3.org/1999/xlink" width="116" zoomAndPan="magnify" viewBox="0 0 87 32.999998" height="44" preserveAspectRatio="xMidYMid meet" version="1.0"><defs><g/></defs><g fill="#ff3131" fill-opacity="1"><g transform="translate(1.777084, 27.886499)"><g><path d="M 21.519531 0.304688 C 21.703125 0.242188 21.882812 0.152344 21.945312 0.0898438 C 21.976562 0 21.855469 -0.0625 21.792969 -0.121094 C 21.703125 -0.183594 21.671875 -0.242188 21.855469 -0.363281 C 21.582031 -0.242188 21.367188 -0.242188 21.15625 -0.242188 L 20.851562 -0.242188 C 20.761719 -0.273438 20.671875 -0.273438 20.578125 -0.273438 C 20.550781 -0.273438 20.488281 -0.242188 20.425781 -0.242188 L 20.277344 -0.242188 C 20.214844 -0.242188 20.183594 -0.242188 20.125 -0.210938 C 20.09375 -0.210938 20.0625 -0.210938 20.03125 -0.210938 L 19.941406 -0.210938 C 19.882812 -0.210938 19.789062 -0.210938 19.730469 -0.183594 C 19.667969 -0.183594 19.609375 -0.183594 19.546875 -0.183594 L 19.183594 -0.183594 C 18.757812 -0.152344 18.273438 -0.210938 17.847656 -0.273438 C 17.390625 -0.332031 16.96875 -0.457031 16.632812 -0.578125 C 16.300781 -0.667969 15.996094 -0.820312 15.664062 -1 C 15.570312 -1.03125 15.480469 -1.0625 15.417969 -1.125 C 15.328125 -1.152344 15.238281 -1.214844 15.175781 -1.246094 L 14.933594 -1.394531 C 14.84375 -1.457031 14.78125 -1.519531 14.691406 -1.546875 C 14.539062 -1.667969 14.386719 -1.789062 14.207031 -1.914062 L 13.75 -2.277344 C 13.445312 -2.550781 13.144531 -2.824219 12.871094 -3.125 C 11.714844 -4.308594 10.746094 -5.765625 9.925781 -7.285156 C 9.5 -8.105469 9.226562 -8.679688 8.894531 -9.46875 C 8.679688 -9.925781 8.5 -10.410156 8.347656 -10.867188 C 8.164062 -11.320312 8.011719 -11.746094 7.863281 -12.050781 C 7.832031 -12.171875 7.769531 -12.261719 7.738281 -12.355469 C 7.679688 -12.476562 7.648438 -12.566406 7.589844 -12.65625 C 7.558594 -12.777344 7.496094 -12.871094 7.46875 -12.992188 C 7.589844 -13.023438 7.710938 -13.050781 7.832031 -13.113281 C 8.011719 -13.171875 8.195312 -13.265625 8.378906 -13.386719 C 8.773438 -13.507812 9.167969 -13.660156 9.53125 -13.839844 C 9.804688 -13.960938 10.078125 -14.113281 10.351562 -14.296875 C 10.625 -14.476562 10.867188 -14.722656 11.109375 -14.964844 C 11.59375 -15.449219 11.988281 -16.058594 12.261719 -16.722656 C 12.535156 -17.421875 12.65625 -18.242188 12.566406 -19.0625 C 12.503906 -19.488281 12.414062 -19.882812 12.292969 -20.304688 C 12.140625 -20.699219 11.929688 -21.09375 11.714844 -21.460938 C 11.230469 -22.21875 10.5625 -22.855469 9.742188 -23.371094 C 9.347656 -23.613281 8.894531 -23.796875 8.40625 -23.949219 C 7.921875 -24.101562 7.40625 -24.191406 6.890625 -24.222656 L 6.464844 -24.222656 C 6.375 -24.222656 6.28125 -24.222656 6.191406 -24.191406 C 6.101562 -24.191406 6.039062 -24.191406 5.949219 -24.160156 L 5.765625 -24.160156 L 5.402344 -24.070312 C 4.886719 -23.980469 4.371094 -23.765625 3.855469 -23.464844 C 3.371094 -23.160156 2.914062 -22.765625 2.550781 -22.339844 C 2.429688 -22.21875 2.367188 -22.097656 2.277344 -22.007812 C 2.183594 -21.882812 2.125 -21.761719 2.0625 -21.640625 C 1.972656 -21.519531 1.914062 -21.429688 1.851562 -21.308594 L 1.761719 -21.125 C 1.730469 -21.066406 1.699219 -21.003906 1.699219 -20.945312 C 1.488281 -20.488281 1.335938 -20.0625 1.246094 -19.636719 C 1.125 -19.214844 1.0625 -18.820312 1 -18.453125 C 0.878906 -17.664062 0.851562 -16.96875 0.851562 -16.269531 C 0.851562 -15.570312 0.878906 -14.933594 0.941406 -14.296875 C 1 -13.71875 1.0625 -13.144531 1.183594 -12.597656 C 1.183594 -12.597656 1.152344 -12.566406 1.152344 -12.535156 C 1.214844 -12.261719 1.214844 -12.019531 1.246094 -11.777344 C 1.246094 -11.59375 1.214844 -11.382812 1.246094 -11.230469 C 1.246094 -11.230469 1.273438 -11.199219 1.273438 -11.171875 C 1.273438 -11.109375 1.246094 -11.046875 1.246094 -11.019531 C 1.246094 -10.898438 1.304688 -10.773438 1.304688 -10.652344 C 1.304688 -10.503906 1.273438 -10.378906 1.273438 -10.230469 C 1.273438 -10.136719 1.335938 -10.078125 1.335938 -10.015625 C 1.335938 -9.957031 1.304688 -9.894531 1.304688 -9.835938 C 1.304688 -9.683594 1.367188 -9.5625 1.335938 -9.410156 C 1.335938 -9.226562 1.273438 -9.015625 1.335938 -8.832031 C 1.304688 -8.621094 1.304688 -8.378906 1.335938 -8.164062 C 1.214844 -8.011719 1.335938 -7.863281 1.304688 -7.679688 C 1.304688 -7.648438 1.273438 -7.648438 1.273438 -7.617188 C 1.183594 -7.34375 1.304688 -7.042969 1.246094 -6.800781 C 1.304688 -6.738281 1.214844 -6.648438 1.214844 -6.585938 C 1.183594 -6.496094 1.246094 -6.433594 1.246094 -6.34375 C 1.246094 -6.3125 1.214844 -6.28125 1.214844 -6.253906 C 1.183594 -6.191406 1.246094 -6.101562 1.246094 -6.011719 C 1.246094 -5.886719 1.125 -5.738281 1.183594 -5.585938 C 1.125 -5.464844 1.0625 -5.3125 1.125 -5.160156 C 1 -4.949219 1.09375 -4.703125 1.03125 -4.492188 C 1.03125 -4.429688 0.941406 -4.339844 1 -4.28125 C 0.910156 -4.1875 0.972656 -4.097656 0.941406 -4.007812 L 0.851562 -3.734375 C 0.820312 -3.582031 0.851562 -3.398438 0.667969 -3.308594 C 0.363281 -3.308594 0.820312 -3.15625 0.726562 -3.066406 C 0.667969 -3.035156 0.578125 -3.035156 0.457031 -3.035156 C 0.394531 -3.003906 0.425781 -2.945312 0.457031 -2.882812 C 0.425781 -2.851562 0.273438 -2.824219 0.242188 -2.761719 C 0.242188 -2.730469 0.304688 -2.671875 0.273438 -2.640625 C 0.273438 -2.578125 0.210938 -2.519531 0.210938 -2.429688 C 0.242188 -2.367188 0.304688 -2.308594 0.304688 -2.214844 C 0.304688 -2.183594 0.304688 -2.15625 0.332031 -2.125 L 0.332031 -2.003906 C 0.363281 -1.972656 0.363281 -1.941406 0.425781 -1.914062 C 0.484375 -1.851562 0.515625 -1.820312 0.515625 -1.789062 C 0.546875 -1.761719 0.546875 -1.761719 0.546875 -1.761719 L 0.578125 -1.730469 C 0.578125 -1.699219 0.605469 -1.699219 0.605469 -1.667969 L 0.636719 -1.667969 C 0.667969 -1.609375 0.726562 -1.578125 0.789062 -1.546875 C 0.820312 -1.488281 0.878906 -1.457031 0.941406 -1.394531 C 1 -1.367188 1.0625 -1.335938 1.09375 -1.273438 C 1.125 -1.273438 1.152344 -1.246094 1.183594 -1.246094 C 1.183594 -1.214844 1.183594 -1.214844 1.214844 -1.214844 L 1.214844 -1.183594 C 1.304688 -1.152344 1.394531 -1.0625 1.488281 -1 L 1.519531 -0.972656 C 1.546875 -0.941406 1.546875 -0.941406 1.578125 -0.941406 C 1.640625 -0.878906 1.699219 -0.820312 1.789062 -0.757812 C 1.851562 -0.699219 1.914062 -0.636719 1.941406 -0.578125 C 1.972656 -0.546875 2.003906 -0.546875 2.003906 -0.515625 C 2.15625 -0.394531 2.277344 -0.304688 2.367188 -0.210938 C 2.488281 -0.121094 2.609375 -0.03125 2.703125 0.0898438 C 2.792969 0.0898438 2.851562 0.152344 2.945312 0.183594 C 3.003906 0.210938 3.097656 0.273438 3.1875 0.273438 C 3.277344 0.273438 3.398438 0.242188 3.519531 0.242188 C 3.640625 0.210938 3.765625 0.183594 3.886719 0.183594 C 3.914062 0.210938 3.976562 0.210938 4.007812 0.183594 L 4.128906 0.183594 C 4.160156 0.152344 4.21875 0.121094 4.28125 0.0898438 L 4.371094 0.03125 C 4.402344 0.03125 4.429688 0 4.429688 -0.03125 C 4.492188 0 4.523438 -0.03125 4.554688 -0.03125 L 4.734375 -0.121094 C 4.796875 -0.183594 4.855469 -0.210938 4.917969 -0.242188 C 4.949219 -0.273438 4.976562 -0.304688 5.007812 -0.332031 L 5.097656 -0.394531 C 5.160156 -0.457031 5.191406 -0.515625 5.222656 -0.578125 C 5.25 -0.605469 5.25 -0.636719 5.28125 -0.667969 L 5.371094 -1 C 5.402344 -1.0625 5.433594 -1.09375 5.464844 -1.125 C 5.492188 -1.183594 5.523438 -1.214844 5.585938 -1.214844 C 5.585938 -1.246094 5.554688 -1.246094 5.585938 -1.273438 C 5.644531 -1.304688 5.796875 -1.367188 5.796875 -1.457031 C 5.796875 -1.488281 5.738281 -1.546875 5.738281 -1.609375 C 5.707031 -1.699219 5.859375 -1.789062 5.859375 -1.851562 C 5.859375 -1.914062 5.765625 -1.941406 5.765625 -2.003906 C 5.738281 -2.09375 5.796875 -2.308594 5.828125 -2.367188 C 5.859375 -2.457031 5.917969 -2.457031 5.917969 -2.519531 C 5.917969 -2.550781 5.859375 -2.609375 5.738281 -2.609375 C 5.644531 -2.703125 5.644531 -2.792969 5.644531 -2.914062 C 5.675781 -3.035156 5.707031 -3.15625 5.644531 -3.277344 C 5.765625 -3.398438 5.617188 -3.550781 5.644531 -3.671875 C 5.644531 -3.703125 5.675781 -3.734375 5.675781 -3.765625 C 5.707031 -3.792969 5.644531 -3.855469 5.644531 -3.914062 C 5.617188 -4.035156 5.644531 -4.097656 5.617188 -4.1875 C 5.738281 -4.308594 5.585938 -4.402344 5.617188 -4.523438 C 5.617188 -4.554688 5.644531 -4.582031 5.675781 -4.644531 C 5.675781 -4.675781 5.617188 -4.703125 5.644531 -4.734375 C 5.644531 -4.796875 5.675781 -4.824219 5.675781 -4.855469 L 5.675781 -4.949219 C 5.675781 -4.976562 5.707031 -4.976562 5.707031 -5.007812 C 5.707031 -5.070312 5.644531 -5.097656 5.644531 -5.128906 C 5.617188 -5.25 5.675781 -5.402344 5.585938 -5.523438 C 5.675781 -5.738281 5.554688 -5.917969 5.644531 -6.160156 C 5.644531 -6.222656 5.617188 -6.28125 5.644531 -6.34375 C 5.644531 -6.34375 5.585938 -6.34375 5.617188 -6.375 C 5.644531 -6.496094 5.523438 -6.648438 5.585938 -6.769531 C 5.585938 -6.800781 5.554688 -6.800781 5.554688 -6.800781 C 5.617188 -6.980469 5.644531 -7.222656 5.554688 -7.375 C 5.617188 -7.46875 5.554688 -7.617188 5.554688 -7.738281 L 5.585938 -7.953125 C 5.554688 -8.074219 5.585938 -8.226562 5.554688 -8.316406 C 5.554688 -8.378906 5.523438 -8.40625 5.523438 -8.4375 C 5.492188 -8.5 5.554688 -8.558594 5.523438 -8.621094 C 5.433594 -8.863281 5.492188 -9.167969 5.492188 -9.378906 C 5.492188 -9.441406 5.464844 -9.5 5.433594 -9.5625 C 5.402344 -9.683594 5.492188 -9.835938 5.464844 -9.957031 C 5.464844 -9.984375 5.433594 -10.015625 5.433594 -10.046875 C 5.402344 -10.078125 5.433594 -10.109375 5.433594 -10.136719 C 5.523438 -9.773438 5.617188 -9.378906 5.765625 -8.953125 C 6.160156 -7.800781 6.617188 -6.527344 7.195312 -5.402344 C 7.710938 -4.402344 8.347656 -3.398438 9.046875 -2.457031 C 9.5 -1.882812 9.957031 -1.304688 10.503906 -0.726562 C 10.625 -0.605469 10.773438 -0.457031 10.925781 -0.304688 L 11.351562 0.0898438 C 11.65625 0.363281 11.960938 0.605469 12.261719 0.851562 C 12.929688 1.367188 13.628906 1.789062 14.386719 2.15625 C 15.144531 2.519531 15.933594 2.792969 16.753906 2.945312 C 16.875 2.945312 17.027344 2.976562 17.148438 3.003906 C 17.269531 3.035156 17.363281 3.035156 17.484375 3.035156 C 17.574219 3.066406 17.664062 3.066406 17.757812 3.066406 C 17.847656 3.066406 17.9375 3.097656 18 3.097656 C 18.304688 3.097656 18.515625 3.035156 18.726562 2.976562 C 18.847656 2.914062 18.910156 2.851562 19 2.792969 C 19.0625 2.730469 19.121094 2.671875 19.214844 2.609375 L 19.730469 2.367188 C 19.820312 2.308594 19.820312 2.246094 19.910156 2.214844 C 20.0625 2.125 20.398438 2.0625 20.609375 1.941406 C 20.699219 1.820312 20.792969 1.730469 20.609375 1.667969 C 20.761719 1.546875 21.035156 1.457031 21.003906 1.335938 C 20.972656 1.273438 20.761719 1.246094 20.824219 1.183594 C 20.914062 1.0625 21.1875 1.03125 21.550781 0.910156 C 21.582031 0.851562 21.703125 0.757812 21.792969 0.636719 C 21.882812 0.546875 21.976562 0.425781 21.914062 0.363281 C 21.855469 0.332031 21.761719 0.332031 21.613281 0.363281 C 21.488281 0.394531 21.308594 0.457031 21.1875 0.515625 C 21.15625 0.425781 21.339844 0.363281 21.519531 0.304688 Z M 0.699219 -20.09375 C 0.699219 -20.09375 0.699219 -20.15625 0.667969 -20.15625 C 0.667969 -20.125 0.667969 -20.09375 0.699219 -20.09375 Z M 7.101562 -15.054688 C 7.074219 -15.023438 7.011719 -15.023438 6.980469 -14.996094 C 6.828125 -14.933594 6.675781 -14.875 6.527344 -14.84375 C 6.34375 -14.78125 6.253906 -14.75 6.070312 -14.722656 C 5.886719 -14.691406 5.707031 -14.660156 5.585938 -14.601562 C 5.554688 -14.601562 5.492188 -14.570312 5.464844 -14.539062 L 5.28125 -14.449219 C 5.28125 -14.417969 5.3125 -14.449219 5.3125 -14.417969 C 5.28125 -14.355469 5.28125 -14.328125 5.222656 -14.296875 C 5.222656 -14.265625 5.191406 -14.234375 5.160156 -14.175781 C 5.097656 -14.722656 5.070312 -15.269531 5.039062 -15.753906 C 5.007812 -16.359375 5.039062 -16.96875 5.128906 -17.542969 C 5.191406 -18.121094 5.3125 -18.636719 5.433594 -19 C 5.492188 -19.214844 5.554688 -19.394531 5.644531 -19.515625 C 5.738281 -19.667969 5.828125 -19.789062 5.949219 -19.882812 C 6.039062 -19.941406 6.191406 -20.03125 6.34375 -20.0625 L 6.40625 -20.09375 L 6.496094 -20.09375 L 6.554688 -20.125 L 6.617188 -20.125 C 6.648438 -20.125 6.648438 -20.125 6.648438 -20.125 L 6.707031 -20.125 L 6.738281 -20.15625 C 6.800781 -20.15625 6.828125 -20.15625 6.859375 -20.15625 L 6.890625 -20.15625 L 7.011719 -20.125 L 7.132812 -20.125 C 7.164062 -20.09375 7.222656 -20.09375 7.253906 -20.09375 C 7.285156 -20.0625 7.34375 -20.0625 7.375 -20.0625 C 7.527344 -20.003906 7.679688 -19.941406 7.832031 -19.851562 C 7.953125 -19.730469 8.074219 -19.636719 8.195312 -19.515625 L 8.46875 -19.121094 C 8.621094 -18.847656 8.679688 -18.546875 8.679688 -18.273438 C 8.679688 -18.152344 8.679688 -18.03125 8.652344 -17.910156 L 8.558594 -17.542969 C 8.46875 -17.300781 8.347656 -17.027344 8.195312 -16.722656 C 8.132812 -16.574219 8.042969 -16.390625 7.921875 -16.238281 C 7.832031 -16.058594 7.710938 -15.875 7.589844 -15.691406 C 7.4375 -15.480469 7.285156 -15.269531 7.101562 -15.054688 Z M 1.335938 -20.03125 C 1.367188 -20.03125 1.273438 -20.09375 1.273438 -20.09375 C 1.304688 -20.0625 1.304688 -20.03125 1.335938 -20.03125 Z M 0.757812 -18.453125 C 0.726562 -18.425781 0.789062 -18.363281 0.726562 -18.332031 C 0.757812 -18.332031 0.757812 -18.304688 0.789062 -18.304688 C 0.726562 -18.363281 0.820312 -18.394531 0.757812 -18.453125 Z M 0.757812 -18.453125 "/></g></g></g><g fill="#ff3131" fill-opacity="1"><g transform="translate(16.950613, 27.886499)"><g><path d="M 18.636719 -9.925781 C 18.789062 -10.015625 18.941406 -10.109375 19.09375 -10.167969 C 19 -10.167969 18.878906 -10.078125 18.820312 -10.136719 C 18.910156 -10.320312 18.636719 -10.441406 18.636719 -10.5625 C 18.453125 -10.472656 18.363281 -10.5625 18.242188 -10.5625 C 18.179688 -10.5625 18.058594 -10.503906 17.9375 -10.5625 C 17.878906 -10.746094 17.664062 -10.714844 17.515625 -10.714844 C 17.574219 -10.746094 17.636719 -10.773438 17.664062 -10.835938 C 17.664062 -11.019531 18.058594 -11.109375 17.9375 -11.261719 C 17.878906 -11.414062 17.605469 -11.261719 17.515625 -11.441406 C 17.605469 -11.566406 17.574219 -11.65625 17.636719 -11.746094 C 17.574219 -11.777344 17.515625 -11.835938 17.484375 -11.898438 C 17.363281 -11.929688 17.210938 -11.808594 17.179688 -11.929688 C 17.269531 -12.019531 17.242188 -12.261719 17.148438 -12.382812 L 16.9375 -12.476562 C 16.90625 -12.476562 16.816406 -12.476562 16.785156 -12.503906 L 16.664062 -12.503906 C 16.632812 -12.503906 16.601562 -12.476562 16.574219 -12.445312 C 16.511719 -12.445312 16.421875 -12.445312 16.390625 -12.445312 L 16.058594 -12.355469 C 15.933594 -12.355469 15.90625 -12.324219 15.8125 -12.292969 C 15.664062 -13.566406 15.511719 -14.8125 15.328125 -16.027344 C 15.238281 -16.695312 15.085938 -17.390625 14.964844 -17.9375 C 14.75 -18.699219 14.507812 -19.546875 14.175781 -20.277344 L 14.023438 -20.519531 C 13.839844 -20.882812 13.628906 -21.246094 13.417969 -21.671875 L 13.023438 -22.308594 C 12.871094 -22.523438 12.65625 -22.734375 12.445312 -22.917969 C 12.050781 -23.339844 11.503906 -23.734375 10.925781 -23.917969 C 10.351562 -24.128906 9.773438 -24.191406 9.320312 -24.160156 C 9.320312 -24.128906 9.441406 -24.101562 9.53125 -24.070312 C 9.589844 -24.007812 9.714844 -23.980469 9.683594 -23.949219 C 9.289062 -23.980469 8.925781 -23.980469 8.621094 -23.949219 C 8.558594 -23.917969 8.5 -23.917969 8.4375 -23.886719 L 8.40625 -23.886719 C 8.132812 -23.859375 7.921875 -23.828125 7.710938 -23.765625 C 7.679688 -23.734375 7.589844 -23.734375 7.527344 -23.707031 L 7.46875 -23.675781 L 7.375 -23.613281 C 7.34375 -23.613281 7.253906 -23.585938 7.253906 -23.554688 L 7.132812 -23.523438 C 6.769531 -23.339844 6.554688 -23.21875 6.34375 -23.097656 C 6.101562 -22.945312 5.980469 -22.824219 5.796875 -22.734375 C 5.765625 -22.703125 5.738281 -22.671875 5.707031 -22.644531 L 5.617188 -22.582031 C 5.523438 -22.523438 5.492188 -22.429688 5.433594 -22.371094 C 5.34375 -22.277344 5.222656 -22.128906 5.128906 -22.007812 C 5.039062 -21.824219 4.949219 -21.703125 4.855469 -21.550781 C 4.644531 -21.21875 4.492188 -20.882812 4.371094 -20.609375 C 3.945312 -19.546875 3.613281 -18.332031 3.429688 -17.542969 C 3.066406 -15.933594 2.792969 -14.296875 2.550781 -12.65625 L 2.335938 -11.351562 C 2.335938 -11.292969 2.308594 -11.230469 2.308594 -11.171875 L 2.308594 -11.078125 C 2.277344 -11.019531 2.246094 -11.019531 2.214844 -10.925781 C 2.183594 -10.835938 2.183594 -10.683594 2.15625 -10.59375 C 2.0625 -10.472656 2.035156 -10.320312 2.003906 -10.199219 C 1.972656 -10.136719 2.003906 -10.046875 1.972656 -9.984375 L 1.882812 -9.863281 C 1.820312 -9.714844 1.820312 -9.5625 1.761719 -9.441406 C 1.699219 -9.289062 1.578125 -9.105469 1.578125 -8.894531 C 1.488281 -8.742188 1.425781 -8.46875 1.394531 -8.285156 C 1.214844 -8.195312 1.246094 -7.984375 1.183594 -7.832031 C 1.183594 -7.800781 1.152344 -7.800781 1.152344 -7.769531 C 1 -7.558594 1.03125 -7.222656 0.910156 -7.042969 C 0.910156 -6.949219 0.851562 -6.859375 0.820312 -6.800781 C 0.789062 -6.738281 0.789062 -6.648438 0.757812 -6.585938 C 0.757812 -6.554688 0.726562 -6.554688 0.726562 -6.527344 C 0.667969 -6.464844 0.667969 -6.375 0.667969 -6.253906 C 0.636719 -6.132812 0.484375 -6.039062 0.515625 -5.886719 C 0.425781 -5.796875 0.332031 -5.617188 0.332031 -5.464844 C 0.210938 -5.3125 0.242188 -5.039062 0.0898438 -4.824219 C 0.0625 -4.765625 0 -4.703125 0.03125 -4.582031 C -0.0625 -4.554688 -0.0625 -4.429688 -0.0898438 -4.339844 C -0.121094 -4.25 -0.210938 -4.1875 -0.242188 -4.097656 C -0.304688 -3.914062 -0.304688 -3.734375 -0.484375 -3.671875 C -0.789062 -3.703125 -0.363281 -3.519531 -0.484375 -3.398438 C -0.546875 -3.339844 -0.636719 -3.371094 -0.726562 -3.371094 C -0.820312 -3.339844 -0.820312 -3.277344 -0.789062 -3.21875 C -0.820312 -3.1875 -0.941406 -3.15625 -0.972656 -3.097656 C -0.972656 -3.066406 -0.941406 -3.003906 -0.972656 -2.976562 C -0.972656 -2.851562 -1.09375 -2.792969 -1.09375 -2.703125 C -1.09375 -2.609375 -1 -2.519531 -1.0625 -2.429688 C -1.0625 -2.367188 -1 -2.335938 -1 -2.277344 C -1 -2.125 -1.0625 -2.035156 -0.941406 -1.972656 C -0.878906 -1.851562 -0.851562 -1.699219 -0.820312 -1.609375 C -0.636719 -1.335938 -0.332031 -1.125 -0.242188 -0.851562 C -0.152344 -0.820312 -0.0625 -0.789062 0.03125 -0.726562 C 0.0625 -0.699219 0.0625 -0.667969 0.152344 -0.636719 C 0.273438 -0.515625 0.484375 -0.515625 0.578125 -0.394531 L 0.667969 -0.394531 C 1 -0.332031 1.304688 -0.304688 1.488281 -0.210938 C 1.667969 -0.242188 1.882812 -0.183594 2.003906 -0.210938 C 2.0625 -0.210938 2.183594 -0.242188 2.277344 -0.242188 C 2.367188 -0.273438 2.488281 -0.304688 2.578125 -0.304688 L 2.671875 -0.304688 C 2.792969 -0.183594 2.882812 -0.0625 3.066406 0.0625 C 3.1875 -0.0625 3.246094 -0.273438 3.398438 -0.363281 C 3.703125 -0.425781 4.035156 -0.910156 4.339844 -0.820312 C 4.402344 -0.878906 4.460938 -1 4.554688 -1.0625 C 4.582031 -1 4.675781 -1.03125 4.765625 -0.972656 C 4.917969 -1.304688 5.191406 -1.394531 5.34375 -1.820312 C 5.433594 -1.820312 5.433594 -1.789062 5.464844 -1.820312 C 5.859375 -2.277344 6.191406 -3.1875 6.40625 -4.21875 C 6.585938 -4.976562 6.800781 -5.796875 6.949219 -6.554688 C 8.257812 -6.617188 9.53125 -6.675781 10.746094 -6.800781 C 10.898438 -6.800781 11.019531 -6.828125 11.199219 -6.828125 C 11.230469 -6.585938 11.230469 -6.3125 11.261719 -6.070312 C 11.320312 -5.160156 11.472656 -4.1875 11.714844 -3.035156 C 11.867188 -2.125 12.050781 -1.488281 12.292969 -0.636719 C 12.535156 0.210938 12.777344 1.125 13.171875 1.941406 C 13.324219 2.246094 13.566406 2.519531 13.6875 2.914062 C 13.71875 2.851562 13.75 2.914062 13.78125 2.976562 C 13.933594 3.21875 14.144531 3.492188 14.296875 3.640625 C 14.476562 3.824219 14.628906 3.886719 14.660156 3.792969 C 14.75 3.914062 14.722656 3.855469 14.84375 3.914062 C 14.78125 3.855469 14.75 3.792969 14.75 3.734375 C 14.691406 3.671875 14.660156 3.613281 14.660156 3.582031 C 14.601562 3.550781 14.476562 3.429688 14.417969 3.308594 C 14.328125 3.21875 14.207031 3.097656 14.175781 3.035156 C 14.144531 2.824219 13.992188 2.550781 14.023438 2.429688 C 14.054688 2.519531 14.082031 2.703125 14.144531 2.761719 C 14.113281 2.640625 14.082031 2.488281 14.082031 2.398438 C 14.144531 2.457031 14.175781 2.640625 14.265625 2.730469 C 14.328125 2.851562 14.355469 3.003906 14.328125 2.976562 C 14.386719 3.097656 14.386719 3.21875 14.507812 3.308594 C 14.601562 3.398438 14.601562 3.308594 14.628906 3.339844 C 14.628906 3.398438 14.722656 3.519531 14.660156 3.519531 C 14.628906 3.492188 14.628906 3.429688 14.601562 3.429688 C 14.691406 3.671875 14.933594 4.007812 15.085938 4.160156 C 15.054688 4.128906 14.933594 3.914062 15.023438 3.976562 C 15.085938 4.128906 15.207031 4.1875 15.269531 4.25 C 15.328125 4.308594 15.359375 4.371094 15.480469 4.371094 C 15.359375 4.308594 15.296875 4.21875 15.328125 4.1875 C 15.449219 4.308594 15.328125 4.1875 15.328125 4.160156 C 15.511719 4.308594 15.480469 4.402344 15.570312 4.460938 C 15.539062 4.402344 15.511719 4.25 15.539062 4.25 C 15.722656 4.402344 15.753906 4.429688 15.722656 4.371094 L 15.933594 4.644531 C 15.90625 4.523438 15.84375 4.429688 15.785156 4.308594 C 15.722656 4.21875 15.632812 4.097656 15.632812 4.066406 C 15.875 4.25 15.933594 4.402344 16.117188 4.523438 C 15.996094 4.371094 15.875 4.25 15.84375 4.128906 C 15.90625 4.1875 15.933594 4.28125 16.027344 4.308594 C 16.085938 4.371094 16.148438 4.429688 16.207031 4.460938 C 16.117188 4.371094 16.058594 4.308594 16.058594 4.28125 C 16.058594 4.21875 16.085938 4.21875 16.117188 4.21875 C 15.933594 4.007812 15.8125 3.792969 15.570312 3.550781 C 15.480469 3.519531 15.449219 3.550781 15.417969 3.582031 C 15.449219 3.613281 15.511719 3.671875 15.511719 3.703125 L 15.417969 3.613281 C 15.480469 3.734375 15.570312 3.824219 15.511719 3.886719 C 15.328125 3.671875 15.328125 3.703125 15.328125 3.734375 C 15.175781 3.519531 15.054688 3.339844 14.902344 3.21875 C 14.78125 3.003906 14.722656 2.761719 14.601562 2.550781 L 14.175781 1.789062 C 13.992188 1.273438 13.78125 0.789062 13.78125 0.425781 C 13.78125 0.425781 13.78125 0.394531 13.8125 0.394531 C 13.992188 0.757812 14.113281 1.09375 14.265625 1.488281 C 14.386719 1.851562 14.570312 2.183594 14.691406 2.519531 C 14.933594 2.761719 14.964844 3.066406 15.175781 3.308594 C 15.144531 3.246094 15.207031 3.277344 15.207031 3.246094 C 15.269531 3.308594 15.238281 3.339844 15.296875 3.398438 C 15.359375 3.398438 15.359375 3.371094 15.359375 3.308594 C 15.359375 3.339844 15.390625 3.339844 15.417969 3.339844 C 15.359375 3.308594 15.328125 3.21875 15.359375 3.246094 L 16.207031 4.25 C 16.207031 4.1875 16.148438 4.128906 16.238281 4.097656 C 16.058594 4.007812 16.058594 3.855469 15.933594 3.734375 C 16.179688 3.914062 16.207031 4.097656 16.390625 4.21875 C 16.511719 4.371094 16.300781 4.097656 16.359375 4.097656 C 16.421875 4.128906 16.390625 4.21875 16.480469 4.21875 C 16.480469 4.1875 16.542969 4.25 16.542969 4.1875 C 16.542969 4.21875 16.601562 4.25 16.632812 4.21875 C 16.511719 4.160156 16.632812 4.21875 16.574219 4.128906 C 16.632812 4.160156 16.664062 4.1875 16.722656 4.25 C 16.753906 4.28125 16.785156 4.308594 16.875 4.371094 C 16.90625 4.371094 16.875 4.308594 16.875 4.28125 C 16.9375 4.371094 16.9375 4.402344 17.027344 4.460938 C 16.96875 4.308594 16.9375 4.25 16.90625 4.128906 C 17.179688 4.371094 17.148438 4.402344 17.332031 4.492188 C 17.242188 4.371094 17.269531 4.1875 17.179688 4.007812 C 17.242188 4.066406 17.300781 4.128906 17.363281 4.160156 C 17.453125 4.1875 17.484375 4.21875 17.542969 4.1875 C 17.484375 4.160156 17.390625 4.097656 17.300781 4.066406 C 17.210938 3.976562 17.148438 3.914062 17.148438 3.886719 C 17.242188 3.914062 17.300781 4.066406 17.390625 4.066406 C 17.363281 4.007812 17.300781 4.007812 17.300781 3.976562 C 17.605469 4.160156 17.757812 4.1875 17.96875 4.25 C 17.847656 4.160156 17.636719 4.066406 17.542969 3.914062 C 17.664062 3.976562 17.726562 3.914062 17.785156 4.066406 C 17.910156 3.976562 17.785156 3.914062 17.878906 3.886719 C 17.726562 3.792969 17.636719 3.703125 17.574219 3.613281 C 17.515625 3.582031 17.484375 3.519531 17.453125 3.492188 C 17.390625 3.398438 17.332031 3.371094 17.300781 3.308594 C 17.363281 3.339844 17.390625 3.371094 17.484375 3.398438 C 17.542969 3.492188 17.574219 3.519531 17.636719 3.550781 C 17.726562 3.640625 17.816406 3.703125 17.9375 3.734375 C 17.878906 3.703125 17.847656 3.671875 17.816406 3.640625 C 17.785156 3.582031 17.785156 3.550781 17.785156 3.519531 C 17.847656 3.582031 17.878906 3.582031 17.910156 3.582031 L 18.058594 3.582031 C 17.878906 3.492188 17.847656 3.398438 17.785156 3.308594 C 17.910156 3.371094 17.757812 3.21875 17.816406 3.21875 C 17.878906 3.308594 17.96875 3.371094 18.121094 3.398438 C 18.03125 3.339844 17.96875 3.277344 18.058594 3.308594 C 18.03125 3.277344 17.9375 3.246094 17.9375 3.21875 C 18.121094 3.246094 18.179688 3.21875 18.179688 3.21875 C 18.210938 3.125 18.152344 3.035156 18.121094 2.976562 C 18.179688 3.035156 18.179688 3.003906 18.242188 3.003906 C 18.242188 2.945312 18.179688 2.824219 18.210938 2.761719 C 18.242188 2.761719 18.242188 2.792969 18.242188 2.761719 C 18.242188 2.640625 18.121094 2.488281 18.089844 2.335938 C 18.089844 2.367188 18.179688 2.246094 18.089844 2.214844 C 18.179688 2.246094 18.210938 2.367188 18.210938 2.398438 C 18.304688 2.335938 18.179688 2.183594 18.210938 2.0625 C 18.210938 2.003906 18.242188 2.125 18.242188 2.0625 L 18.242188 2.003906 C 18.304688 2.0625 18.304688 2.09375 18.332031 2.125 C 18.363281 2.09375 18.332031 2.0625 18.332031 2.0625 C 18.304688 2.003906 18.304688 1.972656 18.332031 1.972656 C 18.394531 2.0625 18.304688 2.003906 18.394531 2.0625 C 18.394531 2.0625 18.394531 2.003906 18.363281 1.972656 C 18.363281 1.941406 18.332031 1.914062 18.332031 1.882812 C 18.304688 1.789062 18.242188 1.699219 18.332031 1.699219 L 18.242188 1.640625 C 18.242188 1.609375 18.242188 1.578125 18.210938 1.546875 C 18.210938 1.488281 18.210938 1.425781 18.152344 1.367188 C 18.121094 1.335938 18.089844 1.273438 18.089844 1.246094 C 18.058594 1.214844 18.058594 1.183594 18.03125 1.125 C 18.03125 1.09375 18.03125 1.0625 17.96875 1.03125 C 17.96875 1 17.9375 0.972656 17.910156 0.910156 L 17.9375 0.910156 C 17.664062 0.363281 17.484375 -0.242188 17.269531 -0.910156 C 17.058594 -1.578125 16.90625 -2.367188 16.753906 -3.125 C 16.480469 -4.582031 16.300781 -6.191406 16.148438 -7.832031 C 16.300781 -7.890625 16.421875 -7.921875 16.511719 -7.953125 C 17.179688 -8.226562 17.847656 -8.46875 18.304688 -8.894531 C 18.304688 -9.105469 18.332031 -9.289062 18.179688 -9.5 C 18.179688 -9.53125 18.210938 -9.589844 18.242188 -9.652344 C 18.363281 -9.742188 18.484375 -9.835938 18.636719 -9.925781 Z M 7.832031 -23.675781 C 7.863281 -23.707031 7.921875 -23.734375 8.042969 -23.765625 C 8.074219 -23.796875 8.132812 -23.828125 8.257812 -23.859375 L 8.285156 -23.859375 C 8.164062 -23.796875 8.074219 -23.765625 8.042969 -23.734375 C 8.132812 -23.734375 8.164062 -23.734375 8.164062 -23.707031 C 8.105469 -23.707031 8.042969 -23.675781 7.984375 -23.675781 C 7.953125 -23.613281 7.863281 -23.613281 7.832031 -23.613281 Z M 11.898438 -22.25 C 11.960938 -22.25 11.898438 -22.308594 11.867188 -22.339844 C 11.960938 -22.308594 12.050781 -22.25 12.140625 -22.1875 C 12.171875 -22.15625 12.203125 -22.097656 12.292969 -22.066406 C 12.324219 -22.007812 12.382812 -21.976562 12.414062 -21.882812 C 12.597656 -21.671875 12.75 -21.429688 12.871094 -21.21875 C 12.75 -21.277344 12.65625 -21.367188 12.566406 -21.308594 C 12.445312 -21.519531 12.324219 -21.703125 12.171875 -21.855469 C 12.019531 -22.066406 11.867188 -22.21875 11.746094 -22.339844 C 11.746094 -22.402344 11.867188 -22.308594 11.898438 -22.25 Z M 9.894531 -11.078125 C 9.167969 -10.988281 8.40625 -10.898438 7.679688 -10.835938 C 7.800781 -11.746094 7.953125 -12.65625 8.105469 -13.597656 C 8.285156 -14.476562 8.4375 -15.359375 8.621094 -16.207031 C 8.953125 -17.664062 9.015625 -18.394531 9.320312 -18.546875 C 9.5 -18.605469 9.589844 -18.546875 9.683594 -18.332031 C 9.742188 -18.242188 9.773438 -18.121094 9.804688 -18.03125 C 9.894531 -17.664062 10.015625 -17.363281 10.078125 -16.96875 C 10.167969 -16.601562 10.230469 -16.269531 10.289062 -15.90625 C 10.59375 -14.476562 10.714844 -12.839844 10.835938 -11.171875 Z M 12.355469 -1.246094 C 12.324219 -1.394531 12.324219 -1.546875 12.292969 -1.699219 C 12.292969 -1.914062 12.171875 -1.789062 12.171875 -1.914062 C 11.960938 -2.945312 11.835938 -3.914062 11.714844 -4.886719 C 11.59375 -5.554688 11.535156 -6.222656 11.472656 -6.859375 C 11.503906 -6.890625 11.535156 -6.890625 11.566406 -6.890625 C 11.625 -6.222656 11.746094 -5.523438 11.835938 -4.855469 C 11.960938 -3.765625 12.140625 -2.640625 12.445312 -1.519531 C 12.445312 -1.457031 12.476562 -1.457031 12.476562 -1.394531 C 12.535156 -1.246094 12.535156 -1.09375 12.566406 -0.910156 C 12.65625 -0.457031 12.898438 0.152344 13.050781 0.757812 C 13.234375 1.304688 13.507812 1.851562 13.6875 2.367188 C 13.050781 1.183594 12.566406 -0.152344 12.355469 -1.246094 Z M 18.179688 1.335938 C 18.152344 1.304688 18.179688 1.367188 18.152344 1.367188 C 18.179688 1.394531 18.210938 1.335938 18.179688 1.335938 Z M 18.152344 2.125 C 18.152344 2.15625 18.179688 2.183594 18.179688 2.214844 C 18.210938 2.246094 18.210938 2.246094 18.210938 2.277344 C 18.179688 2.277344 18.121094 2.183594 18.152344 2.125 Z M 14.175781 2.15625 C 14.175781 2.125 14.207031 2.277344 14.265625 2.367188 C 14.175781 2.335938 14.296875 2.457031 14.296875 2.488281 C 14.175781 2.429688 14.144531 2.183594 14.175781 2.15625 Z M 17.027344 3.035156 C 17.058594 3.003906 17.058594 3.066406 17.089844 3.097656 Z M 17.148438 3.15625 C 17.242188 3.21875 17.242188 3.21875 17.179688 3.21875 Z M 15.175781 3.308594 C 15.175781 3.308594 15.175781 3.339844 15.207031 3.339844 Z M 15.175781 3.308594 "/></g></g></g><g fill="#ff3131" fill-opacity="1"><g transform="translate(35.158858, 27.886499)"><g><path d="M 0.394531 -33.570312 C 0.515625 -33.601562 0.578125 -33.632812 0.667969 -33.660156 C 0.851562 -33.691406 0.910156 -33.78125 0.910156 -33.933594 C 0.910156 -34.175781 0.851562 -34.269531 0.605469 -34.359375 C 0.394531 -34.449219 0.242188 -34.390625 0.121094 -34.238281 C 0 -34.117188 -0.03125 -33.933594 0 -33.8125 C 0 -33.601562 0.183594 -33.511719 0.394531 -33.570312 Z M -3.976562 -30.808594 C -4.128906 -30.898438 -4.21875 -30.808594 -4.308594 -30.746094 C -4.308594 -30.71875 -4.339844 -30.65625 -4.371094 -30.625 C -4.429688 -30.503906 -4.460938 -30.445312 -4.402344 -30.351562 C -4.339844 -30.230469 -4.25 -30.230469 -4.160156 -30.261719 C -4.066406 -30.292969 -4.035156 -30.292969 -4.007812 -30.324219 C -3.914062 -30.351562 -3.886719 -30.445312 -3.855469 -30.535156 C -3.855469 -30.6875 -3.914062 -30.777344 -3.976562 -30.808594 Z M 3.339844 -28.136719 C 3.339844 -28.046875 3.371094 -28.015625 3.429688 -28.015625 C 3.550781 -28.046875 3.671875 -28.015625 3.734375 -27.957031 C 3.765625 -27.894531 3.824219 -27.894531 3.886719 -27.894531 C 4.035156 -27.894531 4.160156 -27.863281 4.339844 -27.894531 C 4.460938 -27.894531 4.582031 -27.957031 4.613281 -28.105469 C 4.613281 -28.199219 4.675781 -28.289062 4.765625 -28.351562 L 4.886719 -28.351562 C 4.917969 -28.410156 4.949219 -28.472656 4.886719 -28.53125 C 4.765625 -28.621094 4.796875 -28.714844 4.824219 -28.804688 C 4.824219 -28.804688 4.855469 -28.804688 4.855469 -28.835938 C 4.886719 -28.894531 4.917969 -28.988281 4.855469 -29.046875 C 4.765625 -29.140625 4.734375 -29.320312 4.613281 -29.414062 C 4.523438 -29.535156 4.339844 -29.5625 4.160156 -29.65625 L 4.097656 -29.65625 C 4.007812 -29.59375 3.886719 -29.625 3.765625 -29.59375 C 3.640625 -29.5625 3.460938 -29.59375 3.371094 -29.472656 C 3.277344 -29.382812 3.15625 -29.230469 3.097656 -29.046875 C 3.003906 -28.804688 3.035156 -28.5625 3.246094 -28.351562 C 3.277344 -28.289062 3.339844 -28.226562 3.339844 -28.136719 Z M -1.152344 -27.5 C -1.0625 -27.46875 -0.878906 -27.5625 -0.820312 -27.710938 C -0.757812 -27.925781 -0.789062 -28.105469 -0.910156 -28.167969 C -1.0625 -28.226562 -1.273438 -28.105469 -1.394531 -27.957031 C -1.457031 -27.832031 -1.335938 -27.5625 -1.152344 -27.5 Z M 17.816406 -26.195312 C 17.785156 -26.074219 17.785156 -25.953125 17.785156 -25.859375 C 17.910156 -25.921875 17.878906 -26.074219 17.878906 -26.195312 Z M 19.335938 -23.886719 C 19.425781 -24.007812 19.273438 -24.128906 19.335938 -24.222656 L 19.121094 -24.402344 C 19.183594 -24.554688 19 -24.617188 19.0625 -24.859375 C 18.878906 -24.949219 18.726562 -25.070312 18.667969 -25.316406 L 18.425781 -25.464844 C 18.363281 -25.527344 18.273438 -25.558594 18.121094 -25.585938 L 17.878906 -25.738281 C 17.785156 -25.769531 17.695312 -25.832031 17.605469 -25.859375 C 17.210938 -25.980469 16.875 -26.074219 16.480469 -26.105469 C 16.058594 -26.132812 15.691406 -26.105469 15.296875 -26.042969 L 14.75 -25.953125 C 14.539062 -25.921875 14.355469 -25.890625 14.175781 -25.832031 C 13.78125 -25.738281 13.445312 -25.617188 13.050781 -25.558594 C 12.71875 -25.4375 12.324219 -25.34375 11.988281 -25.253906 C 11.625 -25.191406 11.261719 -25.101562 10.898438 -24.949219 C 10.5625 -24.859375 10.199219 -24.796875 9.863281 -24.675781 C 9.742188 -24.675781 9.683594 -24.648438 9.589844 -24.617188 C 9.347656 -24.675781 9.167969 -24.523438 8.894531 -24.523438 C 8.863281 -24.523438 8.863281 -24.554688 8.832031 -24.554688 C 8.40625 -24.585938 8.011719 -24.375 7.679688 -24.402344 C 7.558594 -24.28125 7.46875 -24.402344 7.34375 -24.402344 C 7.222656 -24.402344 7.164062 -24.28125 7.011719 -24.28125 L 6.890625 -24.28125 C 6.800781 -24.28125 6.675781 -24.222656 6.554688 -24.191406 C 6.40625 -24.160156 6.160156 -24.253906 5.949219 -24.160156 C 5.796875 -24.160156 5.492188 -24.191406 5.34375 -24.128906 C 5.007812 -24.160156 4.675781 -24.007812 4.371094 -24.007812 C 4.21875 -24.007812 4.097656 -24.101562 4.007812 -24.007812 C 3.886719 -24.070312 3.734375 -24.007812 3.613281 -23.980469 C 3.429688 -23.980469 3.308594 -24.007812 3.15625 -24.007812 C 2.976562 -24.007812 2.671875 -23.886719 2.519531 -24.039062 C 2.367188 -24.402344 2.335938 -23.828125 2.125 -23.886719 C 2.035156 -23.949219 2.035156 -24.039062 1.972656 -24.160156 C 1.914062 -24.191406 1.820312 -24.160156 1.761719 -24.128906 C 1.640625 -24.160156 1.578125 -24.28125 1.425781 -24.28125 C 1.367188 -24.253906 1.335938 -24.191406 1.273438 -24.191406 C 1.152344 -24.160156 1.03125 -24.222656 0.910156 -24.160156 C 0.757812 -24.128906 0.667969 -24.039062 0.546875 -24.007812 C 0.457031 -23.980469 0.425781 -23.949219 0.363281 -23.917969 C 0.242188 -23.828125 0.03125 -23.828125 -0.03125 -23.707031 C -0.121094 -23.523438 -0.273438 -23.464844 -0.363281 -23.339844 L -0.425781 -23.339844 C -0.667969 -23.070312 -0.789062 -22.613281 -1.09375 -22.402344 C -1.09375 -22.308594 -1.09375 -22.128906 -1.152344 -22.035156 C -1.152344 -21.976562 -1.183594 -21.945312 -1.183594 -21.882812 C -1.246094 -21.703125 -1.152344 -21.429688 -1.246094 -21.277344 C -1.246094 -21.21875 -1.214844 -21.21875 -1.214844 -21.1875 C -1.152344 -20.792969 -1.09375 -20.488281 -1.0625 -20.183594 C -0.941406 -20.003906 -0.941406 -19.820312 -0.851562 -19.636719 C -0.820312 -19.578125 -0.726562 -19.488281 -0.636719 -19.367188 C -0.546875 -19.273438 -0.457031 -19.183594 -0.425781 -19.09375 C -0.394531 -18.972656 -0.304688 -18.941406 -0.273438 -18.878906 C -0.183594 -18.820312 -0.121094 -18.699219 0 -18.636719 C 0 -18.605469 0.03125 -18.574219 0.0625 -18.546875 C 0.304688 -18.363281 0.546875 -18.179688 0.851562 -18.152344 C 0.878906 -18.152344 0.910156 -18.121094 0.941406 -18.152344 C 1.152344 -18.179688 1.457031 -18.179688 1.609375 -18 C 1.640625 -18 1.640625 -18.058594 1.667969 -18.058594 C 1.699219 -17.9375 1.820312 -17.847656 1.914062 -17.878906 C 1.972656 -17.878906 1.972656 -17.96875 2.035156 -18 C 2.15625 -18.058594 2.308594 -17.910156 2.367188 -17.9375 C 2.429688 -17.96875 2.457031 -18.089844 2.488281 -18.121094 C 2.609375 -18.179688 2.851562 -18.179688 2.976562 -18.179688 C 3.035156 -18.152344 3.066406 -18.089844 3.125 -18.121094 C 3.1875 -18.121094 3.21875 -18.210938 3.21875 -18.304688 C 3.339844 -18.574219 3.734375 -18.453125 3.976562 -18.574219 C 4.128906 -18.546875 4.308594 -18.699219 4.460938 -18.699219 L 4.582031 -18.699219 C 4.644531 -18.699219 4.734375 -18.789062 4.765625 -18.820312 C 4.886719 -18.878906 5.039062 -18.878906 5.128906 -18.941406 C 5.3125 -18.820312 5.402344 -18.972656 5.523438 -19 C 5.554688 -19 5.617188 -18.941406 5.707031 -18.972656 C 5.765625 -18.972656 5.796875 -19.03125 5.828125 -19.03125 C 5.886719 -19.03125 5.949219 -19 6.011719 -19 C 6.039062 -19 6.070312 -19.03125 6.101562 -19.03125 C 6.132812 -19.03125 6.160156 -19 6.191406 -19.03125 C 6.222656 -19.03125 6.28125 -19.09375 6.3125 -19.121094 C 6.527344 -19.183594 6.675781 -19.121094 6.828125 -19.273438 C 6.859375 -19.273438 6.859375 -19.273438 6.859375 -19.273438 C 7.011719 -18.058594 7.042969 -16.722656 7.101562 -15.539062 C 7.132812 -15.269531 7.132812 -14.964844 7.132812 -14.660156 L 7.132812 -13.71875 C 7.101562 -13.417969 7.101562 -13.113281 7.101562 -12.808594 C 7.042969 -12.503906 7.042969 -12.171875 7.042969 -11.898438 C 6.980469 -10.59375 6.890625 -9.347656 6.828125 -8.132812 L 6.738281 -6.011719 C 6.707031 -5.34375 6.675781 -4.949219 6.648438 -4.339844 L 6.554688 -3.492188 C 6.527344 -3.1875 6.527344 -2.882812 6.496094 -2.609375 C 6.496094 -2.398438 6.527344 -2.183594 6.464844 -2.003906 C 6.496094 -2.003906 6.496094 -1.941406 6.496094 -1.882812 C 6.496094 -1.609375 6.496094 -1.152344 6.738281 -1.246094 C 6.707031 -1.152344 6.738281 -1.183594 6.800781 -1.125 C 6.828125 -1.183594 6.859375 -1.335938 6.859375 -1.394531 C 6.828125 -1.457031 6.859375 -1.667969 6.828125 -1.789062 C 6.890625 -1.851562 6.921875 -2.09375 7.042969 -2.15625 C 7.011719 -2.09375 6.921875 -1.941406 6.949219 -1.882812 C 7.011719 -2.003906 7.101562 -2.09375 7.164062 -2.15625 C 7.164062 -2.035156 7.101562 -1.699219 6.980469 -1.761719 C 6.980469 -1.667969 6.921875 -1.640625 6.949219 -1.519531 C 6.949219 -1.488281 6.980469 -1.519531 7.011719 -1.488281 C 6.980469 -1.457031 6.980469 -1.394531 6.921875 -1.394531 C 6.921875 -1.425781 6.949219 -1.457031 6.921875 -1.457031 C 6.859375 -1.304688 6.828125 -1.0625 6.828125 -0.941406 C 6.828125 -1 6.859375 -1.09375 6.890625 -1.0625 C 6.859375 -0.910156 6.890625 -0.789062 6.921875 -0.757812 C 6.949219 -0.789062 6.921875 -0.851562 6.980469 -0.851562 C 6.980469 -0.789062 6.980469 -0.851562 7.011719 -0.851562 C 7.042969 -0.757812 6.921875 -0.726562 6.949219 -0.667969 C 6.980469 -0.699219 7.132812 -0.789062 7.164062 -0.757812 C 7.132812 -0.636719 7.132812 -0.605469 7.195312 -0.667969 C 7.164062 -0.636719 7.101562 -0.484375 7.132812 -0.425781 C 7.222656 -0.515625 7.316406 -0.757812 7.40625 -0.789062 C 7.40625 -0.636719 7.285156 -0.515625 7.34375 -0.425781 C 7.4375 -0.515625 7.40625 -0.636719 7.496094 -0.699219 C 7.46875 -0.605469 7.4375 -0.457031 7.46875 -0.394531 C 7.46875 -0.515625 7.589844 -0.546875 7.648438 -0.515625 C 7.710938 -0.699219 7.769531 -0.820312 7.800781 -1.0625 C 7.710938 -1.09375 7.617188 -1.09375 7.589844 -1.09375 C 7.589844 -1.0625 7.589844 -1 7.558594 -1 L 7.558594 -1.0625 C 7.558594 -0.972656 7.527344 -0.910156 7.4375 -0.910156 C 7.46875 -1.0625 7.4375 -1.0625 7.40625 -1.0625 C 7.4375 -1.214844 7.46875 -1.335938 7.4375 -1.488281 C 7.648438 -1.941406 7.558594 -2.914062 7.832031 -3.398438 C 7.832031 -3.308594 7.863281 -3.398438 7.890625 -3.398438 C 7.921875 -2.882812 7.800781 -2.308594 7.648438 -1.851562 C 7.769531 -1.640625 7.558594 -1.488281 7.558594 -1.304688 C 7.558594 -1.367188 7.617188 -1.335938 7.648438 -1.335938 C 7.648438 -1.246094 7.617188 -1.246094 7.617188 -1.183594 C 7.710938 -1.152344 7.769531 -1.246094 7.832031 -1.335938 C 7.832031 -1.246094 7.710938 -1.183594 7.800781 -1.152344 C 7.800781 -1.214844 7.863281 -1.304688 7.863281 -1.246094 C 7.832031 -1 7.800781 -0.726562 7.679688 -0.457031 C 7.769531 -0.457031 7.800781 -0.515625 7.890625 -0.515625 L 7.863281 -0.425781 C 7.890625 -0.304688 7.921875 -0.484375 7.953125 -0.457031 C 7.953125 -0.425781 7.890625 -0.425781 7.921875 -0.363281 C 7.953125 -0.394531 7.984375 -0.304688 8.011719 -0.394531 L 8.011719 -0.304688 C 8.042969 -0.363281 8.074219 -0.304688 8.105469 -0.363281 C 8.132812 -0.273438 8.074219 -0.210938 8.042969 -0.121094 C 8.105469 -0.121094 8.132812 -0.121094 8.132812 -0.152344 C 8.132812 -0.0898438 8.074219 -0.0898438 8.042969 -0.03125 C 8.164062 -0.0898438 8.226562 -0.121094 8.316406 -0.210938 C 8.285156 0 8.226562 0 8.226562 0.183594 C 8.347656 0.03125 8.558594 0.03125 8.652344 -0.0898438 C 8.652344 0 8.621094 0.0898438 8.679688 0.183594 C 8.742188 0.0898438 8.679688 -0.121094 8.742188 -0.152344 C 8.800781 -0.0898438 8.710938 -0.03125 8.773438 0.03125 C 8.773438 0 8.773438 -0.03125 8.800781 -0.03125 C 8.832031 0.210938 8.863281 0.304688 8.953125 0.457031 C 8.953125 0.332031 8.925781 0.183594 8.984375 0.0625 C 9.015625 0.183594 9.105469 0.210938 9.015625 0.273438 C 9.167969 0.332031 9.195312 0.273438 9.289062 0.273438 C 9.320312 0 9.410156 -0.0898438 9.441406 -0.304688 C 9.5625 -0.0898438 9.378906 0.0625 9.46875 0.273438 C 9.5 0.183594 9.53125 0.0898438 9.621094 0.0625 C 9.621094 0.242188 9.683594 0.210938 9.714844 0.273438 C 9.714844 0.152344 9.773438 0.0625 9.863281 -0.03125 C 9.894531 0.0898438 9.957031 -0.0898438 9.984375 -0.03125 C 9.925781 0.0625 9.925781 0.183594 9.984375 0.273438 C 9.984375 0.183594 10.015625 0.0898438 10.046875 0.242188 C 10.046875 0.183594 10.015625 0.0625 10.046875 0.0625 C 10.230469 0.304688 10.351562 0.242188 10.441406 0.03125 C 10.410156 0.152344 10.441406 0.152344 10.472656 0.210938 C 10.625 0.183594 10.652344 0.0625 10.746094 0 C 10.746094 0.0625 10.746094 0.0898438 10.773438 0.0898438 C 10.925781 -0.03125 10.957031 -0.183594 11.078125 -0.304688 C 11.078125 -0.304688 11.171875 -0.304688 11.140625 -0.394531 C 11.199219 -0.273438 11.109375 -0.183594 11.078125 -0.183594 C 11.292969 -0.121094 11.320312 -0.332031 11.441406 -0.425781 C 11.472656 -0.425781 11.441406 -0.304688 11.472656 -0.304688 C 11.472656 -0.363281 11.503906 -0.363281 11.503906 -0.394531 C 11.535156 -0.304688 11.472656 -0.304688 11.472656 -0.242188 C 11.535156 -0.242188 11.566406 -0.425781 11.59375 -0.363281 C 11.625 -0.242188 11.566406 -0.363281 11.59375 -0.242188 C 11.6875 -0.242188 11.714844 -0.667969 11.808594 -0.546875 C 11.777344 -0.789062 11.988281 -0.851562 11.898438 -1 C 11.960938 -1 12.019531 -1 12.019531 -1.03125 C 11.988281 -1.09375 11.960938 -0.972656 11.898438 -1.0625 C 11.898438 -1.246094 12.019531 -1.367188 11.988281 -1.578125 C 12.050781 -1.546875 12.050781 -1.609375 12.082031 -1.578125 C 12.109375 -2.824219 12.050781 -4.035156 11.988281 -5.34375 C 11.898438 -6.675781 11.835938 -8.011719 11.808594 -9.378906 C 11.777344 -11.261719 11.6875 -13.324219 11.59375 -15.085938 C 11.59375 -15.570312 11.566406 -16.058594 11.566406 -16.421875 C 11.535156 -16.9375 11.535156 -17.542969 11.441406 -17.9375 L 11.441406 -18.179688 C 11.414062 -18.574219 11.441406 -19.09375 11.472656 -19.609375 C 11.472656 -19.851562 11.503906 -20.0625 11.503906 -20.304688 C 11.777344 -20.335938 12.019531 -20.398438 12.261719 -20.457031 C 12.597656 -20.519531 12.992188 -20.609375 13.355469 -20.671875 C 13.6875 -20.730469 14.082031 -20.851562 14.417969 -20.945312 C 14.78125 -21.003906 15.117188 -21.066406 15.480469 -21.15625 L 16.269531 -21.339844 C 16.511719 -21.367188 16.753906 -21.398438 17.027344 -21.488281 C 17.148438 -21.550781 17.269531 -21.613281 17.363281 -21.640625 C 17.484375 -21.703125 17.636719 -21.734375 17.726562 -21.792969 C 17.9375 -21.914062 18.121094 -22.066406 18.332031 -22.308594 C 18.304688 -22.277344 18.242188 -22.277344 18.273438 -22.339844 C 18.394531 -22.429688 18.546875 -22.582031 18.667969 -22.703125 L 19.09375 -23.039062 C 19.0625 -23.070312 18.941406 -22.976562 18.941406 -23.097656 C 19 -23.128906 19.09375 -23.160156 19.183594 -23.25 C 19.152344 -23.25 19.09375 -23.3125 19.152344 -23.339844 C 19.214844 -23.371094 19.304688 -23.464844 19.367188 -23.554688 C 19.425781 -23.675781 19.425781 -23.796875 19.335938 -23.886719 Z M -1.367188 -24.464844 C -1.425781 -24.496094 -1.519531 -24.496094 -1.519531 -24.402344 C -1.519531 -24.28125 -1.519531 -24.222656 -1.425781 -24.191406 C -1.367188 -24.160156 -1.273438 -24.191406 -1.246094 -24.253906 C -1.214844 -24.375 -1.246094 -24.433594 -1.367188 -24.464844 Z M 10.746094 -18.820312 C 10.714844 -18.878906 10.683594 -18.941406 10.59375 -18.941406 L 10.59375 -19.667969 C 10.652344 -19.667969 10.652344 -19.609375 10.683594 -19.578125 C 10.714844 -19.546875 10.714844 -19.578125 10.714844 -19.609375 C 10.773438 -19.488281 10.773438 -19.0625 10.746094 -18.820312 Z M 7.132812 -4.796875 C 7.101562 -4.675781 7.042969 -4.582031 7.011719 -4.460938 C 6.949219 -4.1875 6.980469 -3.734375 6.921875 -3.308594 C 6.859375 -2.945312 6.859375 -2.550781 6.769531 -2.246094 C 6.828125 -3.066406 6.800781 -3.945312 6.890625 -4.703125 C 6.890625 -4.824219 6.949219 -4.949219 6.949219 -5.039062 C 7.011719 -5.191406 6.859375 -5.097656 6.921875 -5.191406 C 7.011719 -6.617188 7.132812 -7.984375 7.222656 -9.320312 C 7.222656 -9.957031 7.253906 -10.625 7.285156 -11.292969 C 7.285156 -11.960938 7.316406 -12.65625 7.316406 -13.355469 C 7.316406 -12.050781 7.34375 -10.804688 7.316406 -9.53125 C 7.253906 -8.042969 7.132812 -6.464844 7.132812 -4.886719 Z M 10.714844 -5.949219 C 10.746094 -5.644531 10.746094 -5.160156 10.714844 -4.917969 Z M 10.714844 -4.796875 C 10.746094 -4.28125 10.746094 -3.671875 10.746094 -3.15625 C 10.714844 -3.640625 10.714844 -4.402344 10.714844 -4.796875 Z M 7.375 -2.125 C 7.316406 -2.15625 7.316406 -2.0625 7.285156 -2.035156 C 7.253906 -2.09375 7.316406 -2.214844 7.375 -2.214844 C 7.40625 -2.214844 7.375 -2.15625 7.375 -2.125 Z M 7.890625 -0.515625 C 7.800781 -0.636719 7.921875 -0.726562 7.953125 -0.789062 C 7.953125 -0.699219 7.890625 -0.605469 7.890625 -0.515625 Z M 9.53125 -0.515625 C 9.53125 -0.273438 9.46875 -0.515625 9.53125 -0.636719 C 9.5625 -0.636719 9.53125 -0.515625 9.53125 -0.515625 Z M 11.199219 -0.210938 C 11.171875 -0.273438 11.199219 -0.394531 11.292969 -0.425781 C 11.292969 -0.332031 11.199219 -0.304688 11.199219 -0.210938 Z M 11.199219 -0.210938 "/></g></g></g><g fill="#ff3131" fill-opacity="1"><g transform="translate(53.367104, 27.886499)"><g><path d="M 0.394531 -33.570312 C 0.515625 -33.601562 0.578125 -33.632812 0.667969 -33.660156 C 0.851562 -33.691406 0.910156 -33.78125 0.910156 -33.933594 C 0.910156 -34.175781 0.851562 -34.269531 0.605469 -34.359375 C 0.394531 -34.449219 0.242188 -34.390625 0.121094 -34.238281 C 0 -34.117188 -0.03125 -33.933594 0 -33.8125 C 0 -33.601562 0.183594 -33.511719 0.394531 -33.570312 Z M -3.976562 -30.808594 C -4.128906 -30.898438 -4.21875 -30.808594 -4.308594 -30.746094 C -4.308594 -30.71875 -4.339844 -30.65625 -4.371094 -30.625 C -4.429688 -30.503906 -4.460938 -30.445312 -4.402344 -30.351562 C -4.339844 -30.230469 -4.25 -30.230469 -4.160156 -30.261719 C -4.066406 -30.292969 -4.035156 -30.292969 -4.007812 -30.324219 C -3.914062 -30.351562 -3.886719 -30.445312 -3.855469 -30.535156 C -3.855469 -30.6875 -3.914062 -30.777344 -3.976562 -30.808594 Z M 3.339844 -28.136719 C 3.339844 -28.046875 3.371094 -28.015625 3.429688 -28.015625 C 3.550781 -28.046875 3.671875 -28.015625 3.734375 -27.957031 C 3.765625 -27.894531 3.824219 -27.894531 3.886719 -27.894531 C 4.035156 -27.894531 4.160156 -27.863281 4.339844 -27.894531 C 4.460938 -27.894531 4.582031 -27.957031 4.613281 -28.105469 C 4.613281 -28.199219 4.675781 -28.289062 4.765625 -28.351562 L 4.886719 -28.351562 C 4.917969 -28.410156 4.949219 -28.472656 4.886719 -28.53125 C 4.765625 -28.621094 4.796875 -28.714844 4.824219 -28.804688 C 4.824219 -28.804688 4.855469 -28.804688 4.855469 -28.835938 C 4.886719 -28.894531 4.917969 -28.988281 4.855469 -29.046875 C 4.765625 -29.140625 4.734375 -29.320312 4.613281 -29.414062 C 4.523438 -29.535156 4.339844 -29.5625 4.160156 -29.65625 L 4.097656 -29.65625 C 4.007812 -29.59375 3.886719 -29.625 3.765625 -29.59375 C 3.640625 -29.5625 3.460938 -29.59375 3.371094 -29.472656 C 3.277344 -29.382812 3.15625 -29.230469 3.097656 -29.046875 C 3.003906 -28.804688 3.035156 -28.5625 3.246094 -28.351562 C 3.277344 -28.289062 3.339844 -28.226562 3.339844 -28.136719 Z M -1.152344 -27.5 C -1.0625 -27.46875 -0.878906 -27.5625 -0.820312 -27.710938 C -0.757812 -27.925781 -0.789062 -28.105469 -0.910156 -28.167969 C -1.0625 -28.226562 -1.273438 -28.105469 -1.394531 -27.957031 C -1.457031 -27.832031 -1.335938 -27.5625 -1.152344 -27.5 Z M 17.816406 -26.195312 C 17.785156 -26.074219 17.785156 -25.953125 17.785156 -25.859375 C 17.910156 -25.921875 17.878906 -26.074219 17.878906 -26.195312 Z M 19.335938 -23.886719 C 19.425781 -24.007812 19.273438 -24.128906 19.335938 -24.222656 L 19.121094 -24.402344 C 19.183594 -24.554688 19 -24.617188 19.0625 -24.859375 C 18.878906 -24.949219 18.726562 -25.070312 18.667969 -25.316406 L 18.425781 -25.464844 C 18.363281 -25.527344 18.273438 -25.558594 18.121094 -25.585938 L 17.878906 -25.738281 C 17.785156 -25.769531 17.695312 -25.832031 17.605469 -25.859375 C 17.210938 -25.980469 16.875 -26.074219 16.480469 -26.105469 C 16.058594 -26.132812 15.691406 -26.105469 15.296875 -26.042969 L 14.75 -25.953125 C 14.539062 -25.921875 14.355469 -25.890625 14.175781 -25.832031 C 13.78125 -25.738281 13.445312 -25.617188 13.050781 -25.558594 C 12.71875 -25.4375 12.324219 -25.34375 11.988281 -25.253906 C 11.625 -25.191406 11.261719 -25.101562 10.898438 -24.949219 C 10.5625 -24.859375 10.199219 -24.796875 9.863281 -24.675781 C 9.742188 -24.675781 9.683594 -24.648438 9.589844 -24.617188 C 9.347656 -24.675781 9.167969 -24.523438 8.894531 -24.523438 C 8.863281 -24.523438 8.863281 -24.554688 8.832031 -24.554688 C 8.40625 -24.585938 8.011719 -24.375 7.679688 -24.402344 C 7.558594 -24.28125 7.46875 -24.402344 7.34375 -24.402344 C 7.222656 -24.402344 7.164062 -24.28125 7.011719 -24.28125 L 6.890625 -24.28125 C 6.800781 -24.28125 6.675781 -24.222656 6.554688 -24.191406 C 6.40625 -24.160156 6.160156 -24.253906 5.949219 -24.160156 C 5.796875 -24.160156 5.492188 -24.191406 5.34375 -24.128906 C 5.007812 -24.160156 4.675781 -24.007812 4.371094 -24.007812 C 4.21875 -24.007812 4.097656 -24.101562 4.007812 -24.007812 C 3.886719 -24.070312 3.734375 -24.007812 3.613281 -23.980469 C 3.429688 -23.980469 3.308594 -24.007812 3.15625 -24.007812 C 2.976562 -24.007812 2.671875 -23.886719 2.519531 -24.039062 C 2.367188 -24.402344 2.335938 -23.828125 2.125 -23.886719 C 2.035156 -23.949219 2.035156 -24.039062 1.972656 -24.160156 C 1.914062 -24.191406 1.820312 -24.160156 1.761719 -24.128906 C 1.640625 -24.160156 1.578125 -24.28125 1.425781 -24.28125 C 1.367188 -24.253906 1.335938 -24.191406 1.273438 -24.191406 C 1.152344 -24.160156 1.03125 -24.222656 0.910156 -24.160156 C 0.757812 -24.128906 0.667969 -24.039062 0.546875 -24.007812 C 0.457031 -23.980469 0.425781 -23.949219 0.363281 -23.917969 C 0.242188 -23.828125 0.03125 -23.828125 -0.03125 -23.707031 C -0.121094 -23.523438 -0.273438 -23.464844 -0.363281 -23.339844 L -0.425781 -23.339844 C -0.667969 -23.070312 -0.789062 -22.613281 -1.09375 -22.402344 C -1.09375 -22.308594 -1.09375 -22.128906 -1.152344 -22.035156 C -1.152344 -21.976562 -1.183594 -21.945312 -1.183594 -21.882812 C -1.246094 -21.703125 -1.152344 -21.429688 -1.246094 -21.277344 C -1.246094 -21.21875 -1.214844 -21.21875 -1.214844 -21.1875 C -1.152344 -20.792969 -1.09375 -20.488281 -1.0625 -20.183594 C -0.941406 -20.003906 -0.941406 -19.820312 -0.851562 -19.636719 C -0.820312 -19.578125 -0.726562 -19.488281 -0.636719 -19.367188 C -0.546875 -19.273438 -0.457031 -19.183594 -0.425781 -19.09375 C -0.394531 -18.972656 -0.304688 -18.941406 -0.273438 -18.878906 C -0.183594 -18.820312 -0.121094 -18.699219 0 -18.636719 C 0 -18.605469 0.03125 -18.574219 0.0625 -18.546875 C 0.304688 -18.363281 0.546875 -18.179688 0.851562 -18.152344 C 0.878906 -18.152344 0.910156 -18.121094 0.941406 -18.152344 C 1.152344 -18.179688 1.457031 -18.179688 1.609375 -18 C 1.640625 -18 1.640625 -18.058594 1.667969 -18.058594 C 1.699219 -17.9375 1.820312 -17.847656 1.914062 -17.878906 C 1.972656 -17.878906 1.972656 -17.96875 2.035156 -18 C 2.15625 -18.058594 2.308594 -17.910156 2.367188 -17.9375 C 2.429688 -17.96875 2.457031 -18.089844 2.488281 -18.121094 C 2.609375 -18.179688 2.851562 -18.179688 2.976562 -18.179688 C 3.035156 -18.152344 3.066406 -18.089844 3.125 -18.121094 C 3.1875 -18.121094 3.21875 -18.210938 3.21875 -18.304688 C 3.339844 -18.574219 3.734375 -18.453125 3.976562 -18.574219 C 4.128906 -18.546875 4.308594 -18.699219 4.460938 -18.699219 L 4.582031 -18.699219 C 4.644531 -18.699219 4.734375 -18.789062 4.765625 -18.820312 C 4.886719 -18.878906 5.039062 -18.878906 5.128906 -18.941406 C 5.3125 -18.820312 5.402344 -18.972656 5.523438 -19 C 5.554688 -19 5.617188 -18.941406 5.707031 -18.972656 C 5.765625 -18.972656 5.796875 -19.03125 5.828125 -19.03125 C 5.886719 -19.03125 5.949219 -19 6.011719 -19 C 6.039062 -19 6.070312 -19.03125 6.101562 -19.03125 C 6.132812 -19.03125 6.160156 -19 6.191406 -19.03125 C 6.222656 -19.03125 6.28125 -19.09375 6.3125 -19.121094 C 6.527344 -19.183594 6.675781 -19.121094 6.828125 -19.273438 C 6.859375 -19.273438 6.859375 -19.273438 6.859375 -19.273438 C 7.011719 -18.058594 7.042969 -16.722656 7.101562 -15.539062 C 7.132812 -15.269531 7.132812 -14.964844 7.132812 -14.660156 L 7.132812 -13.71875 C 7.101562 -13.417969 7.101562 -13.113281 7.101562 -12.808594 C 7.042969 -12.503906 7.042969 -12.171875 7.042969 -11.898438 C 6.980469 -10.59375 6.890625 -9.347656 6.828125 -8.132812 L 6.738281 -6.011719 C 6.707031 -5.34375 6.675781 -4.949219 6.648438 -4.339844 L 6.554688 -3.492188 C 6.527344 -3.1875 6.527344 -2.882812 6.496094 -2.609375 C 6.496094 -2.398438 6.527344 -2.183594 6.464844 -2.003906 C 6.496094 -2.003906 6.496094 -1.941406 6.496094 -1.882812 C 6.496094 -1.609375 6.496094 -1.152344 6.738281 -1.246094 C 6.707031 -1.152344 6.738281 -1.183594 6.800781 -1.125 C 6.828125 -1.183594 6.859375 -1.335938 6.859375 -1.394531 C 6.828125 -1.457031 6.859375 -1.667969 6.828125 -1.789062 C 6.890625 -1.851562 6.921875 -2.09375 7.042969 -2.15625 C 7.011719 -2.09375 6.921875 -1.941406 6.949219 -1.882812 C 7.011719 -2.003906 7.101562 -2.09375 7.164062 -2.15625 C 7.164062 -2.035156 7.101562 -1.699219 6.980469 -1.761719 C 6.980469 -1.667969 6.921875 -1.640625 6.949219 -1.519531 C 6.949219 -1.488281 6.980469 -1.519531 7.011719 -1.488281 C 6.980469 -1.457031 6.980469 -1.394531 6.921875 -1.394531 C 6.921875 -1.425781 6.949219 -1.457031 6.921875 -1.457031 C 6.859375 -1.304688 6.828125 -1.0625 6.828125 -0.941406 C 6.828125 -1 6.859375 -1.09375 6.890625 -1.0625 C 6.859375 -0.910156 6.890625 -0.789062 6.921875 -0.757812 C 6.949219 -0.789062 6.921875 -0.851562 6.980469 -0.851562 C 6.980469 -0.789062 6.980469 -0.851562 7.011719 -0.851562 C 7.042969 -0.757812 6.921875 -0.726562 6.949219 -0.667969 C 6.980469 -0.699219 7.132812 -0.789062 7.164062 -0.757812 C 7.132812 -0.636719 7.132812 -0.605469 7.195312 -0.667969 C 7.164062 -0.636719 7.101562 -0.484375 7.132812 -0.425781 C 7.222656 -0.515625 7.316406 -0.757812 7.40625 -0.789062 C 7.40625 -0.636719 7.285156 -0.515625 7.34375 -0.425781 C 7.4375 -0.515625 7.40625 -0.636719 7.496094 -0.699219 C 7.46875 -0.605469 7.4375 -0.457031 7.46875 -0.394531 C 7.46875 -0.515625 7.589844 -0.546875 7.648438 -0.515625 C 7.710938 -0.699219 7.769531 -0.820312 7.800781 -1.0625 C 7.710938 -1.09375 7.617188 -1.09375 7.589844 -1.09375 C 7.589844 -1.0625 7.589844 -1 7.558594 -1 L 7.558594 -1.0625 C 7.558594 -0.972656 7.527344 -0.910156 7.4375 -0.910156 C 7.46875 -1.0625 7.4375 -1.0625 7.40625 -1.0625 C 7.4375 -1.214844 7.46875 -1.335938 7.4375 -1.488281 C 7.648438 -1.941406 7.558594 -2.914062 7.832031 -3.398438 C 7.832031 -3.308594 7.863281 -3.398438 7.890625 -3.398438 C 7.921875 -2.882812 7.800781 -2.308594 7.648438 -1.851562 C 7.769531 -1.640625 7.558594 -1.488281 7.558594 -1.304688 C 7.558594 -1.367188 7.617188 -1.335938 7.648438 -1.335938 C 7.648438 -1.246094 7.617188 -1.246094 7.617188 -1.183594 C 7.710938 -1.152344 7.769531 -1.246094 7.832031 -1.335938 C 7.832031 -1.246094 7.710938 -1.183594 7.800781 -1.152344 C 7.800781 -1.214844 7.863281 -1.304688 7.863281 -1.246094 C 7.832031 -1 7.800781 -0.726562 7.679688 -0.457031 C 7.769531 -0.457031 7.800781 -0.515625 7.890625 -0.515625 L 7.863281 -0.425781 C 7.890625 -0.304688 7.921875 -0.484375 7.953125 -0.457031 C 7.953125 -0.425781 7.890625 -0.425781 7.921875 -0.363281 C 7.953125 -0.394531 7.984375 -0.304688 8.011719 -0.394531 L 8.011719 -0.304688 C 8.042969 -0.363281 8.074219 -0.304688 8.105469 -0.363281 C 8.132812 -0.273438 8.074219 -0.210938 8.042969 -0.121094 C 8.105469 -0.121094 8.132812 -0.121094 8.132812 -0.152344 C 8.132812 -0.0898438 8.074219 -0.0898438 8.042969 -0.03125 C 8.164062 -0.0898438 8.226562 -0.121094 8.316406 -0.210938 C 8.285156 0 8.226562 0 8.226562 0.183594 C 8.347656 0.03125 8.558594 0.03125 8.652344 -0.0898438 C 8.652344 0 8.621094 0.0898438 8.679688 0.183594 C 8.742188 0.0898438 8.679688 -0.121094 8.742188 -0.152344 C 8.800781 -0.0898438 8.710938 -0.03125 8.773438 0.03125 C 8.773438 0 8.773438 -0.03125 8.800781 -0.03125 C 8.832031 0.210938 8.863281 0.304688 8.953125 0.457031 C 8.953125 0.332031 8.925781 0.183594 8.984375 0.0625 C 9.015625 0.183594 9.105469 0.210938 9.015625 0.273438 C 9.167969 0.332031 9.195312 0.273438 9.289062 0.273438 C 9.320312 0 9.410156 -0.0898438 9.441406 -0.304688 C 9.5625 -0.0898438 9.378906 0.0625 9.46875 0.273438 C 9.5 0.183594 9.53125 0.0898438 9.621094 0.0625 C 9.621094 0.242188 9.683594 0.210938 9.714844 0.273438 C 9.714844 0.152344 9.773438 0.0625 9.863281 -0.03125 C 9.894531 0.0898438 9.957031 -0.0898438 9.984375 -0.03125 C 9.925781 0.0625 9.925781 0.183594 9.984375 0.273438 C 9.984375 0.183594 10.015625 0.0898438 10.046875 0.242188 C 10.046875 0.183594 10.015625 0.0625 10.046875 0.0625 C 10.230469 0.304688 10.351562 0.242188 10.441406 0.03125 C 10.410156 0.152344 10.441406 0.152344 10.472656 0.210938 C 10.625 0.183594 10.652344 0.0625 10.746094 0 C 10.746094 0.0625 10.746094 0.0898438 10.773438 0.0898438 C 10.925781 -0.03125 10.957031 -0.183594 11.078125 -0.304688 C 11.078125 -0.304688 11.171875 -0.304688 11.140625 -0.394531 C 11.199219 -0.273438 11.109375 -0.183594 11.078125 -0.183594 C 11.292969 -0.121094 11.320312 -0.332031 11.441406 -0.425781 C 11.472656 -0.425781 11.441406 -0.304688 11.472656 -0.304688 C 11.472656 -0.363281 11.503906 -0.363281 11.503906 -0.394531 C 11.535156 -0.304688 11.472656 -0.304688 11.472656 -0.242188 C 11.535156 -0.242188 11.566406 -0.425781 11.59375 -0.363281 C 11.625 -0.242188 11.566406 -0.363281 11.59375 -0.242188 C 11.6875 -0.242188 11.714844 -0.667969 11.808594 -0.546875 C 11.777344 -0.789062 11.988281 -0.851562 11.898438 -1 C 11.960938 -1 12.019531 -1 12.019531 -1.03125 C 11.988281 -1.09375 11.960938 -0.972656 11.898438 -1.0625 C 11.898438 -1.246094 12.019531 -1.367188 11.988281 -1.578125 C 12.050781 -1.546875 12.050781 -1.609375 12.082031 -1.578125 C 12.109375 -2.824219 12.050781 -4.035156 11.988281 -5.34375 C 11.898438 -6.675781 11.835938 -8.011719 11.808594 -9.378906 C 11.777344 -11.261719 11.6875 -13.324219 11.59375 -15.085938 C 11.59375 -15.570312 11.566406 -16.058594 11.566406 -16.421875 C 11.535156 -16.9375 11.535156 -17.542969 11.441406 -17.9375 L 11.441406 -18.179688 C 11.414062 -18.574219 11.441406 -19.09375 11.472656 -19.609375 C 11.472656 -19.851562 11.503906 -20.0625 11.503906 -20.304688 C 11.777344 -20.335938 12.019531 -20.398438 12.261719 -20.457031 C 12.597656 -20.519531 12.992188 -20.609375 13.355469 -20.671875 C 13.6875 -20.730469 14.082031 -20.851562 14.417969 -20.945312 C 14.78125 -21.003906 15.117188 -21.066406 15.480469 -21.15625 L 16.269531 -21.339844 C 16.511719 -21.367188 16.753906 -21.398438 17.027344 -21.488281 C 17.148438 -21.550781 17.269531 -21.613281 17.363281 -21.640625 C 17.484375 -21.703125 17.636719 -21.734375 17.726562 -21.792969 C 17.9375 -21.914062 18.121094 -22.066406 18.332031 -22.308594 C 18.304688 -22.277344 18.242188 -22.277344 18.273438 -22.339844 C 18.394531 -22.429688 18.546875 -22.582031 18.667969 -22.703125 L 19.09375 -23.039062 C 19.0625 -23.070312 18.941406 -22.976562 18.941406 -23.097656 C 19 -23.128906 19.09375 -23.160156 19.183594 -23.25 C 19.152344 -23.25 19.09375 -23.3125 19.152344 -23.339844 C 19.214844 -23.371094 19.304688 -23.464844 19.367188 -23.554688 C 19.425781 -23.675781 19.425781 -23.796875 19.335938 -23.886719 Z M -1.367188 -24.464844 C -1.425781 -24.496094 -1.519531 -24.496094 -1.519531 -24.402344 C -1.519531 -24.28125 -1.519531 -24.222656 -1.425781 -24.191406 C -1.367188 -24.160156 -1.273438 -24.191406 -1.246094 -24.253906 C -1.214844 -24.375 -1.246094 -24.433594 -1.367188 -24.464844 Z M 10.746094 -18.820312 C 10.714844 -18.878906 10.683594 -18.941406 10.59375 -18.941406 L 10.59375 -19.667969 C 10.652344 -19.667969 10.652344 -19.609375 10.683594 -19.578125 C 10.714844 -19.546875 10.714844 -19.578125 10.714844 -19.609375 C 10.773438 -19.488281 10.773438 -19.0625 10.746094 -18.820312 Z M 7.132812 -4.796875 C 7.101562 -4.675781 7.042969 -4.582031 7.011719 -4.460938 C 6.949219 -4.1875 6.980469 -3.734375 6.921875 -3.308594 C 6.859375 -2.945312 6.859375 -2.550781 6.769531 -2.246094 C 6.828125 -3.066406 6.800781 -3.945312 6.890625 -4.703125 C 6.890625 -4.824219 6.949219 -4.949219 6.949219 -5.039062 C 7.011719 -5.191406 6.859375 -5.097656 6.921875 -5.191406 C 7.011719 -6.617188 7.132812 -7.984375 7.222656 -9.320312 C 7.222656 -9.957031 7.253906 -10.625 7.285156 -11.292969 C 7.285156 -11.960938 7.316406 -12.65625 7.316406 -13.355469 C 7.316406 -12.050781 7.34375 -10.804688 7.316406 -9.53125 C 7.253906 -8.042969 7.132812 -6.464844 7.132812 -4.886719 Z M 10.714844 -5.949219 C 10.746094 -5.644531 10.746094 -5.160156 10.714844 -4.917969 Z M 10.714844 -4.796875 C 10.746094 -4.28125 10.746094 -3.671875 10.746094 -3.15625 C 10.714844 -3.640625 10.714844 -4.402344 10.714844 -4.796875 Z M 7.375 -2.125 C 7.316406 -2.15625 7.316406 -2.0625 7.285156 -2.035156 C 7.253906 -2.09375 7.316406 -2.214844 7.375 -2.214844 C 7.40625 -2.214844 7.375 -2.15625 7.375 -2.125 Z M 7.890625 -0.515625 C 7.800781 -0.636719 7.921875 -0.726562 7.953125 -0.789062 C 7.953125 -0.699219 7.890625 -0.605469 7.890625 -0.515625 Z M 9.53125 -0.515625 C 9.53125 -0.273438 9.46875 -0.515625 9.53125 -0.636719 C 9.5625 -0.636719 9.53125 -0.515625 9.53125 -0.515625 Z M 11.199219 -0.210938 C 11.171875 -0.273438 11.199219 -0.394531 11.292969 -0.425781 C 11.292969 -0.332031 11.199219 -0.304688 11.199219 -0.210938 Z M 11.199219 -0.210938 "/></g></g></g><g fill="#ff3131" fill-opacity="1"><g transform="translate(71.575349, 27.886499)"><g><path d="M 12.992188 -28.136719 C 13.082031 -28.105469 13.144531 -28.167969 13.171875 -28.199219 C 13.203125 -28.257812 13.203125 -28.378906 13.144531 -28.441406 C 13.082031 -28.472656 12.992188 -28.378906 12.960938 -28.320312 C 12.960938 -28.226562 12.898438 -28.167969 12.992188 -28.136719 Z M 14.417969 -25.832031 C 14.628906 -25.890625 14.691406 -26.105469 14.691406 -26.347656 C 14.691406 -26.46875 14.8125 -26.621094 14.660156 -26.679688 C 14.507812 -26.773438 14.449219 -26.589844 14.328125 -26.5 C 14.113281 -26.40625 13.992188 -26.195312 14.054688 -25.953125 C 14.113281 -25.769531 14.234375 -25.738281 14.417969 -25.832031 Z M 13.417969 -25.375 C 13.445312 -25.464844 13.417969 -25.496094 13.386719 -25.527344 C 13.292969 -25.558594 13.292969 -25.496094 13.265625 -25.464844 C 13.265625 -25.4375 13.265625 -25.375 13.292969 -25.34375 C 13.355469 -25.316406 13.386719 -25.34375 13.417969 -25.375 Z M 0.789062 -25.191406 C 0.789062 -25.222656 0.878906 -25.253906 0.851562 -25.316406 C 0.820312 -25.285156 0.667969 -25.285156 0.789062 -25.191406 Z M 18.972656 -24.128906 C 18.972656 -24.070312 18.789062 -24.101562 18.941406 -23.949219 C 18.941406 -24.039062 19.03125 -24.039062 18.972656 -24.128906 Z M 15.023438 -21.761719 C 14.875 -21.703125 14.84375 -21.914062 14.75 -22.097656 C 14.601562 -22.21875 14.449219 -22.429688 14.265625 -22.550781 C 14.113281 -22.734375 13.960938 -22.855469 13.8125 -22.976562 C 13.597656 -23.070312 13.445312 -23.3125 13.265625 -23.371094 C 13.203125 -23.433594 13.082031 -23.464844 12.898438 -23.433594 L 12.445312 -23.433594 C 12.019531 -23.433594 11.535156 -23.339844 11.078125 -23.191406 C 10.625 -23.007812 10.230469 -22.765625 9.835938 -22.429688 C 9.378906 -21.914062 8.953125 -21.429688 8.589844 -20.914062 C 8.195312 -20.367188 7.890625 -19.851562 7.589844 -19.425781 C 6.921875 -18.394531 6.464844 -17.300781 6.070312 -16.238281 C 5.980469 -15.996094 5.917969 -15.722656 5.796875 -15.511719 C 5.796875 -15.570312 5.796875 -15.691406 5.765625 -15.753906 C 5.796875 -15.964844 5.675781 -16.085938 5.675781 -16.269531 C 5.675781 -16.300781 5.707031 -16.300781 5.707031 -16.328125 C 5.707031 -16.511719 5.675781 -16.632812 5.617188 -16.722656 C 5.585938 -16.90625 5.523438 -17.027344 5.523438 -17.179688 C 5.433594 -17.242188 5.523438 -17.300781 5.523438 -17.390625 C 5.523438 -17.484375 5.464844 -17.542969 5.433594 -17.664062 C 5.433594 -17.695312 5.464844 -17.726562 5.464844 -17.726562 C 5.464844 -17.816406 5.402344 -17.847656 5.371094 -17.96875 C 5.34375 -18.089844 5.464844 -18.304688 5.34375 -18.394531 C 5.402344 -18.546875 5.433594 -18.726562 5.34375 -18.878906 C 5.433594 -19.121094 5.28125 -19.335938 5.3125 -19.578125 C 5.3125 -19.699219 5.371094 -19.761719 5.3125 -19.851562 C 5.371094 -19.972656 5.3125 -20.0625 5.3125 -20.125 C 5.3125 -20.246094 5.371094 -20.367188 5.371094 -20.457031 C 5.371094 -20.640625 5.3125 -20.824219 5.464844 -20.945312 C 5.796875 -21.003906 5.28125 -21.066406 5.34375 -21.21875 C 5.433594 -21.277344 5.523438 -21.277344 5.675781 -21.277344 C 5.707031 -21.339844 5.675781 -21.429688 5.644531 -21.460938 C 5.675781 -21.519531 5.796875 -21.582031 5.796875 -21.703125 C 5.796875 -21.734375 5.765625 -21.761719 5.765625 -21.792969 C 5.765625 -21.855469 5.796875 -21.976562 5.796875 -22.066406 C 5.765625 -22.15625 5.675781 -22.21875 5.675781 -22.339844 L 5.617188 -22.429688 C 5.523438 -22.550781 5.585938 -22.671875 5.402344 -22.703125 C 5.3125 -22.796875 5.222656 -22.945312 5.160156 -23.007812 C 4.886719 -23.25 4.492188 -23.371094 4.308594 -23.613281 C 4.21875 -23.613281 4.066406 -23.644531 4.007812 -23.734375 C 3.945312 -23.734375 3.914062 -23.796875 3.886719 -23.796875 C 3.671875 -23.859375 3.429688 -23.828125 3.277344 -23.949219 C 3.21875 -23.949219 3.1875 -23.949219 3.15625 -23.917969 C 2.792969 -24.007812 2.457031 -23.949219 2.15625 -24.039062 C 1.972656 -23.949219 1.761719 -24.007812 1.609375 -23.917969 C 1.488281 -23.886719 1.367188 -23.859375 1.273438 -23.796875 C 1.152344 -23.765625 1.09375 -23.707031 0.972656 -23.644531 C 0.820312 -23.644531 0.789062 -23.585938 0.699219 -23.585938 C 0.605469 -23.523438 0.546875 -23.492188 0.457031 -23.371094 C 0.425781 -23.371094 0.394531 -23.339844 0.332031 -23.339844 C 0.242188 -23.28125 0.121094 -23.191406 0.03125 -23.070312 C -0.0625 -23.007812 -0.152344 -22.886719 -0.183594 -22.765625 C -0.183594 -22.734375 -0.242188 -22.671875 -0.242188 -22.671875 C -0.183594 -22.460938 -0.273438 -22.1875 -0.425781 -22.097656 C -0.425781 -22.066406 -0.394531 -22.066406 -0.394531 -22.035156 C -0.457031 -22.007812 -0.605469 -21.882812 -0.605469 -21.855469 C -0.605469 -21.824219 -0.484375 -21.761719 -0.484375 -21.703125 C -0.457031 -21.613281 -0.578125 -21.519531 -0.578125 -21.429688 C -0.578125 -21.398438 -0.457031 -21.339844 -0.425781 -21.277344 C -0.363281 -21.21875 -0.394531 -21.003906 -0.425781 -20.914062 C -0.457031 -20.851562 -0.546875 -20.824219 -0.546875 -20.730469 C -0.484375 -20.699219 -0.394531 -20.699219 -0.304688 -20.699219 C 0 -20.578125 -0.183594 -20.183594 -0.0625 -20.03125 C -0.121094 -19.851562 0.03125 -19.730469 0.03125 -19.578125 C 0.03125 -19.546875 0 -19.546875 0 -19.515625 C 0 -19.457031 0.03125 -19.394531 0.0898438 -19.304688 C 0.121094 -19.214844 0.121094 -19.121094 0.183594 -19.03125 C 0.03125 -18.910156 0.210938 -18.820312 0.210938 -18.699219 C 0.210938 -18.636719 0.183594 -18.605469 0.183594 -18.546875 C 0.183594 -18.515625 0.242188 -18.453125 0.242188 -18.425781 C 0.242188 -18.394531 0.210938 -18.363281 0.210938 -18.304688 C 0.210938 -18.273438 0.242188 -18.273438 0.242188 -18.242188 C 0.242188 -18.179688 0.210938 -18.152344 0.210938 -18.121094 C 0.242188 -18.089844 0.304688 -18.058594 0.304688 -18.03125 C 0.332031 -17.847656 0.304688 -17.726562 0.457031 -17.605469 C 0.394531 -17.363281 0.578125 -17.179688 0.515625 -16.875 C 0.578125 -16.816406 0.605469 -16.785156 0.578125 -16.664062 C 0.605469 -16.511719 0.757812 -16.359375 0.726562 -16.207031 C 0.726562 -15.996094 0.757812 -15.722656 0.878906 -15.539062 C 0.851562 -15.449219 0.972656 -15.296875 1 -15.144531 C 1.03125 -15.085938 1 -14.964844 1.03125 -14.933594 C 1.09375 -14.8125 1.09375 -14.601562 1.152344 -14.476562 C 1.152344 -14.417969 1.183594 -14.386719 1.183594 -14.355469 C 1.246094 -14.328125 1.183594 -14.265625 1.273438 -14.207031 C 1.335938 -14.054688 1.367188 -13.902344 1.394531 -13.75 C 1.457031 -13.628906 1.457031 -13.445312 1.488281 -13.324219 C 1.546875 -13.234375 1.609375 -13.203125 1.640625 -13.144531 C 1.699219 -13.082031 1.699219 -12.960938 1.699219 -12.898438 C 1.699219 -12.808594 1.730469 -12.75 1.761719 -12.625 C 1.761719 -12.625 1.820312 -12.597656 1.820312 -12.566406 C 1.851562 -12.535156 1.851562 -12.535156 1.851562 -12.503906 L 1.882812 -12.382812 C 1.882812 -12.324219 1.914062 -12.261719 1.941406 -12.203125 C 1.972656 -12.082031 2.003906 -12.050781 2.035156 -11.960938 L 2.15625 -11.714844 C 2.214844 -11.625 2.246094 -11.535156 2.246094 -11.472656 L 2.335938 -11.230469 C 2.457031 -11.078125 2.550781 -10.867188 2.703125 -10.625 C 2.730469 -10.5625 2.761719 -10.503906 2.761719 -10.441406 L 2.824219 -10.351562 C 2.824219 -10.320312 2.851562 -10.320312 2.851562 -10.289062 C 2.914062 -10.199219 2.976562 -10.046875 3.035156 -9.957031 C 3.125 -9.957031 3.125 -9.773438 3.1875 -9.742188 C 3.277344 -9.683594 3.308594 -9.621094 3.371094 -9.53125 L 3.550781 -9.347656 C 3.640625 -9.195312 3.765625 -9.105469 3.855469 -8.925781 C 3.914062 -8.894531 3.976562 -8.832031 4.035156 -8.773438 L 4.1875 -8.589844 L 4.28125 -8.558594 C 4.28125 -8.5 4.25 -8.46875 4.25 -8.378906 C 4.066406 -6.828125 4.007812 -5.28125 4.160156 -3.734375 C 4.21875 -3.15625 4.25 -2.519531 4.339844 -1.882812 C 4.460938 -1.246094 4.613281 -0.636719 4.917969 -0.210938 C 4.886719 -0.152344 4.855469 -0.0898438 4.824219 0.03125 C 4.824219 0.0625 4.824219 0.0625 4.824219 0.0898438 C 4.824219 0.152344 4.855469 0.152344 4.855469 0.183594 C 4.886719 0.304688 5.007812 0.363281 5.191406 0.363281 C 5.3125 0.304688 5.402344 0.183594 5.492188 0.121094 C 5.644531 0.0625 5.738281 -0.0625 5.796875 -0.121094 C 6.011719 -0.304688 6.28125 -0.425781 6.648438 -0.425781 L 6.617188 -0.210938 C 6.617188 -0.152344 6.617188 -0.0898438 6.675781 -0.121094 C 6.648438 -0.152344 6.648438 -0.210938 6.648438 -0.242188 C 6.648438 -0.304688 6.675781 -0.363281 6.675781 -0.394531 C 6.738281 -0.484375 6.800781 -0.515625 6.859375 -0.578125 C 7.011719 -0.726562 7.195312 -0.851562 7.40625 -0.972656 C 7.769531 -1.667969 8.042969 -2.457031 8.257812 -3.246094 C 8.5 -3.976562 8.621094 -4.796875 8.742188 -5.617188 C 8.863281 -6.527344 9.136719 -7.4375 9.347656 -8.347656 C 9.441406 -8.773438 9.46875 -9.195312 9.621094 -9.621094 C 10.109375 -11.171875 10.59375 -12.75 11.199219 -14.234375 C 11.382812 -14.570312 11.535156 -14.933594 11.6875 -15.296875 C 11.835938 -15.664062 12.019531 -15.996094 12.140625 -16.300781 C 12.355469 -16.632812 12.535156 -16.9375 12.6875 -17.242188 C 12.898438 -17.515625 13.113281 -17.785156 13.292969 -18 C 13.476562 -18.179688 13.660156 -18.363281 13.78125 -18.453125 C 13.871094 -18.636719 13.992188 -18.820312 14.054688 -18.972656 C 14.175781 -19.394531 14.355469 -19.730469 14.601562 -19.910156 C 14.601562 -20.03125 14.570312 -20.125 14.507812 -20.304688 C 14.449219 -20.457031 14.449219 -20.640625 14.449219 -20.699219 C 14.539062 -20.730469 14.601562 -20.730469 14.660156 -20.730469 C 14.722656 -20.761719 14.8125 -20.761719 14.875 -20.824219 C 14.933594 -20.851562 14.996094 -20.851562 15.023438 -20.914062 C 15.023438 -20.972656 15.117188 -21.035156 15.144531 -21.15625 C 15.144531 -21.246094 15.085938 -21.308594 15.023438 -21.429688 C 14.964844 -21.519531 14.902344 -21.613281 15.023438 -21.761719 Z M -1.851562 -23.585938 C -1.820312 -23.585938 -1.699219 -23.585938 -1.699219 -23.613281 C -1.761719 -23.585938 -1.914062 -23.734375 -2.003906 -23.707031 Z M 10.257812 -9.742188 C 10.289062 -9.804688 10.351562 -9.894531 10.320312 -9.957031 C 10.257812 -9.894531 10.257812 -9.804688 10.257812 -9.742188 Z M 9.742188 -9.320312 C 9.742188 -9.347656 9.773438 -9.347656 9.804688 -9.378906 C 9.773438 -9.441406 9.742188 -9.378906 9.742188 -9.320312 Z M 9.835938 -9.347656 C 9.894531 -9.347656 9.925781 -9.378906 9.925781 -9.410156 C 9.894531 -9.410156 9.835938 -9.378906 9.835938 -9.347656 Z M 9.835938 -9.347656 "/></g></g></g></svg>